<?xml version="1.0" encoding="UTF-8"?>
<svg xmlns="http://www.w3.org/2000/svg" xmlns:xlink="http://www.w3.org/1999/xlink" width="30px" height="49px" viewBox="0 0 30 48" version="1.1">
<g id="surface1">
<path style=" stroke:none;fill-rule:nonzero;fill:rgb(24.705882%,23.921569%,33.72549%);fill-opacity:1;" d="M 25.65625 47.996094 L 4.4375 47.996094 C 2.136719 47.996094 0.265625 46.160156 0.265625 43.902344 L 0.265625 4.097656 C 0.265625 1.835938 2.136719 0 4.4375 0 L 25.65625 0 C 27.957031 0 29.828125 1.835938 29.828125 4.097656 L 29.828125 43.902344 C 29.828125 46.160156 27.957031 47.996094 25.65625 47.996094 Z M 25.65625 47.996094 "/>
<path style=" stroke:none;fill-rule:nonzero;fill:rgb(24.705882%,23.921569%,33.72549%);fill-opacity:1;" d="M 29.828125 14.640625 C 29.730469 14.640625 29.652344 14.71875 29.652344 14.816406 L 29.652344 20.359375 C 29.652344 20.457031 29.730469 20.535156 29.828125 20.535156 C 29.925781 20.535156 30.003906 20.457031 30.003906 20.359375 L 30.003906 14.816406 C 30.003906 14.71875 29.925781 14.640625 29.828125 14.640625 Z M 29.828125 14.640625 "/>
<path style=" stroke:none;fill-rule:nonzero;fill:rgb(100%,100%,100%);fill-opacity:1;" d="M 29.429688 4.097656 L 29.429688 43.902344 C 29.429688 45.867188 27.871094 47.476562 25.902344 47.601562 C 25.871094 47.601562 25.84375 47.601562 25.8125 47.605469 C 25.761719 47.605469 25.707031 47.609375 25.65625 47.609375 C 25.65625 47.609375 25.460938 47.59375 25.105469 47.566406 C 24.75 47.542969 24.226562 47.503906 23.578125 47.453125 C 23.382812 47.4375 23.175781 47.421875 22.957031 47.402344 C 22.527344 47.367188 22.050781 47.332031 21.542969 47.289062 C 21.339844 47.269531 21.128906 47.253906 20.914062 47.234375 C 19.820312 47.140625 18.589844 47.035156 17.296875 46.910156 C 17.078125 46.890625 16.855469 46.871094 16.636719 46.847656 C 16.578125 46.84375 16.519531 46.835938 16.457031 46.832031 C 15.535156 46.742188 14.585938 46.644531 13.632812 46.542969 C 13.574219 46.535156 13.515625 46.53125 13.457031 46.523438 C 11.816406 46.347656 10.171875 46.152344 8.628906 45.945312 C 7.445312 45.785156 6.320312 45.617188 5.3125 45.445312 C 4.984375 45.386719 4.671875 45.328125 4.367188 45.273438 C 4.308594 45.261719 4.25 45.25 4.191406 45.238281 C 2.058594 44.816406 0.660156 44.367188 0.660156 43.902344 L 0.660156 4.097656 C 0.660156 2.046875 2.351562 0.390625 4.4375 0.390625 L 6.691406 0.390625 C 7.050781 0.390625 7.339844 0.664062 7.371094 1.019531 C 7.375 1.042969 7.375 1.066406 7.382812 1.085938 C 7.445312 1.441406 7.777344 1.6875 8.144531 1.6875 L 21.949219 1.6875 C 22.316406 1.6875 22.648438 1.441406 22.710938 1.085938 C 22.714844 1.066406 22.71875 1.042969 22.722656 1.019531 C 22.753906 0.664062 23.042969 0.390625 23.402344 0.390625 L 25.65625 0.390625 C 27.742188 0.390625 29.429688 2.046875 29.429688 4.097656 Z M 29.429688 4.097656 "/>
<path style=" stroke:none;fill-rule:nonzero;fill:rgb(24.705882%,23.921569%,33.72549%);fill-opacity:1;" d="M 0.175781 10.484375 C 0.078125 10.484375 0 10.5625 0 10.65625 L 0 12.042969 C 0 12.136719 0.078125 12.214844 0.175781 12.214844 C 0.273438 12.214844 0.351562 12.136719 0.351562 12.042969 L 0.351562 10.65625 C 0.351562 10.5625 0.273438 10.484375 0.175781 10.484375 Z M 0.175781 10.484375 "/>
<path style=" stroke:none;fill-rule:nonzero;fill:rgb(24.705882%,23.921569%,33.72549%);fill-opacity:1;" d="M 0.175781 14.640625 C 0.078125 14.640625 0 14.71875 0 14.816406 L 0 17.5 C 0 17.597656 0.078125 17.675781 0.175781 17.675781 C 0.273438 17.675781 0.351562 17.597656 0.351562 17.5 L 0.351562 14.816406 C 0.351562 14.71875 0.273438 14.640625 0.175781 14.640625 Z M 0.175781 14.640625 "/>
<path style=" stroke:none;fill-rule:nonzero;fill:rgb(24.705882%,23.921569%,33.72549%);fill-opacity:1;" d="M 0.175781 18.453125 C 0.078125 18.453125 0 18.53125 0 18.628906 L 0 21.3125 C 0 21.410156 0.078125 21.488281 0.175781 21.488281 C 0.273438 21.488281 0.351562 21.410156 0.351562 21.3125 L 0.351562 18.628906 C 0.351562 18.53125 0.273438 18.453125 0.175781 18.453125 Z M 0.175781 18.453125 "/>
<path style=" stroke:none;fill-rule:nonzero;fill:rgb(24.705882%,23.921569%,33.72549%);fill-opacity:1;" d="M 3.25 0.996094 L 6.636719 0.996094 C 6.652344 0.996094 6.664062 1.007812 6.664062 1.023438 L 6.664062 1.402344 C 6.664062 1.417969 6.652344 1.429688 6.636719 1.429688 L 3.25 1.429688 C 3.234375 1.429688 3.222656 1.417969 3.222656 1.402344 L 3.222656 1.023438 C 3.222656 1.007812 3.234375 0.996094 3.25 0.996094 Z M 3.25 0.996094 "/>
<path style=" stroke:none;fill-rule:nonzero;fill:rgb(24.705882%,23.921569%,33.72549%);fill-opacity:1;" d="M 24.3125 1.082031 C 24.3125 1.273438 24.15625 1.429688 23.960938 1.429688 C 23.765625 1.429688 23.605469 1.273438 23.605469 1.082031 C 23.605469 0.890625 23.765625 0.738281 23.960938 0.738281 C 24.15625 0.738281 24.3125 0.890625 24.3125 1.082031 Z M 24.3125 1.082031 "/>
<path style=" stroke:none;fill-rule:nonzero;fill:rgb(24.705882%,23.921569%,33.72549%);fill-opacity:1;" d="M 25.285156 1.082031 C 25.285156 1.273438 25.125 1.429688 24.929688 1.429688 C 24.734375 1.429688 24.578125 1.273438 24.578125 1.082031 C 24.578125 0.890625 24.734375 0.738281 24.929688 0.738281 C 25.125 0.738281 25.285156 0.890625 25.285156 1.082031 Z M 25.285156 1.082031 "/>
<path style=" stroke:none;fill-rule:nonzero;fill:rgb(24.705882%,23.921569%,33.72549%);fill-opacity:1;" d="M 26.253906 1.082031 C 26.253906 1.273438 26.097656 1.429688 25.902344 1.429688 C 25.707031 1.429688 25.546875 1.273438 25.546875 1.082031 C 25.546875 0.890625 25.707031 0.738281 25.902344 0.738281 C 26.097656 0.738281 26.253906 0.890625 26.253906 1.082031 Z M 26.253906 1.082031 "/>
<path style=" stroke:none;fill-rule:nonzero;fill:rgb(94.901961%,94.901961%,94.901961%);fill-opacity:1;" d="M 20.570312 45.90625 C 20.75 45.917969 20.851562 45.695312 20.714844 45.566406 L 20.699219 45.515625 C 20.703125 45.511719 20.703125 45.507812 20.707031 45.503906 C 20.886719 45.074219 21.507812 45.078125 21.6875 45.507812 C 21.851562 45.886719 22.054688 46.265625 22.105469 46.667969 C 22.128906 46.847656 22.117188 47.027344 22.078125 47.203125 C 22.453125 46.394531 22.652344 45.511719 22.652344 44.625 C 22.652344 44.402344 22.640625 44.179688 22.613281 43.957031 C 22.59375 43.773438 22.566406 43.59375 22.527344 43.414062 C 22.324219 42.445312 21.890625 41.523438 21.257812 40.753906 C 20.957031 40.589844 20.703125 40.335938 20.550781 40.03125 C 20.496094 39.921875 20.453125 39.804688 20.433594 39.683594 C 20.46875 39.6875 20.5625 39.171875 20.539062 39.140625 C 20.585938 39.070312 20.671875 39.035156 20.722656 38.964844 C 20.984375 38.617188 21.34375 38.675781 21.53125 39.148438 C 21.933594 39.347656 21.9375 39.675781 21.691406 39.992188 C 21.535156 40.195312 21.511719 40.46875 21.375 40.683594 C 21.390625 40.703125 21.402344 40.71875 21.417969 40.738281 C 21.675781 41.0625 21.902344 41.414062 22.089844 41.78125 C 22.035156 41.371094 22.117188 40.878906 22.25 40.5625 C 22.402344 40.199219 22.6875 39.894531 22.941406 39.582031 C 23.246094 39.203125 23.867188 39.367188 23.917969 39.847656 C 23.921875 39.851562 23.921875 39.855469 23.921875 39.859375 C 23.882812 39.878906 23.847656 39.902344 23.8125 39.925781 C 23.605469 40.058594 23.675781 40.371094 23.917969 40.40625 L 23.925781 40.40625 C 23.910156 40.539062 23.886719 40.671875 23.855469 40.800781 C 24.179688 42.03125 23.480469 42.476562 22.480469 42.496094 C 22.460938 42.507812 22.4375 42.519531 22.414062 42.53125 C 22.515625 42.808594 22.597656 43.097656 22.65625 43.386719 C 22.710938 43.644531 22.75 43.902344 22.769531 44.164062 C 22.796875 44.492188 22.792969 44.824219 22.765625 45.152344 L 22.765625 45.140625 C 22.839844 44.777344 23.039062 44.441406 23.328125 44.207031 C 23.761719 43.859375 24.371094 43.730469 24.839844 43.449219 C 25.0625 43.316406 25.351562 43.488281 25.3125 43.746094 L 25.308594 43.757812 C 25.242188 43.785156 25.171875 43.816406 25.109375 43.851562 C 25.070312 43.875 25.035156 43.894531 24.996094 43.917969 C 24.792969 44.050781 24.863281 44.363281 25.105469 44.398438 L 25.113281 44.402344 C 25.117188 44.402344 25.117188 44.402344 25.121094 44.402344 C 25.003906 44.679688 24.835938 44.9375 24.628906 45.160156 C 24.425781 46.234375 23.558594 46.335938 22.628906 46.023438 L 22.625 46.023438 C 22.523438 46.457031 22.375 46.882812 22.1875 47.289062 L 20.609375 47.289062 C 20.605469 47.269531 20.597656 47.253906 20.59375 47.234375 C 20.738281 47.246094 20.886719 47.234375 21.03125 47.210938 C 20.914062 47.070312 20.796875 46.925781 20.679688 46.785156 C 20.675781 46.785156 20.675781 46.78125 20.671875 46.777344 C 20.613281 46.707031 20.550781 46.632812 20.492188 46.5625 C 20.488281 46.339844 20.515625 46.121094 20.570312 45.90625 Z M 20.570312 45.90625 "/>
<path style=" stroke:none;fill-rule:nonzero;fill:rgb(46.27451%,65.490196%,87.058824%);fill-opacity:1;" d="M 17.203125 13.421875 C 15.867188 10.039062 11.988281 8.359375 8.539062 9.671875 C 5.125 10.972656 3.417969 14.722656 4.683594 18.082031 L 4.585938 18.121094 L 9.429688 30.375 L 20.917969 26 C 21.296875 25.925781 21.675781 25.820312 22.050781 25.679688 C 25.496094 24.363281 27.207031 20.554688 25.867188 17.171875 C 24.53125 13.789062 20.652344 12.109375 17.203125 13.421875 Z M 17.203125 13.421875 "/>
<path style=" stroke:none;fill-rule:nonzero;fill:rgb(46.27451%,65.490196%,87.058824%);fill-opacity:1;" d="M 24.8125 7.691406 C 24.652344 7.292969 24.191406 7.089844 23.78125 7.246094 C 23.378906 7.402344 23.175781 7.847656 23.324219 8.246094 L 23.3125 8.25 L 23.886719 9.707031 L 25.253906 9.1875 C 25.296875 9.179688 25.34375 9.164062 25.386719 9.148438 C 25.796875 8.992188 26 8.539062 25.839844 8.136719 C 25.683594 7.738281 25.222656 7.535156 24.8125 7.691406 Z M 24.8125 7.691406 "/>
<path style=" stroke:none;fill-rule:nonzero;fill:rgb(46.27451%,65.490196%,87.058824%);fill-opacity:1;" d="M 5.503906 5.449219 C 5.066406 5.410156 4.679688 5.726562 4.636719 6.15625 C 4.597656 6.582031 4.914062 6.957031 5.34375 7.003906 L 5.34375 7.015625 L 6.925781 7.164062 L 7.0625 5.730469 C 7.074219 5.6875 7.082031 5.644531 7.085938 5.597656 C 7.128906 5.167969 6.808594 4.785156 6.371094 4.746094 C 5.933594 4.707031 5.546875 5.019531 5.503906 5.449219 Z M 5.503906 5.449219 "/>
<path style=" stroke:none;fill-rule:nonzero;fill:rgb(100%,71.372549%,71.372549%);fill-opacity:1;" d="M 11.019531 42.996094 L 11.183594 44.136719 L 11.183594 44.140625 L 11.238281 44.519531 L 11.328125 45.128906 L 11.363281 45.386719 L 11.417969 45.765625 L 11.914062 45.757812 L 12.058594 45.753906 L 12.136719 45.75 L 12.128906 45.414062 L 12.113281 44.519531 L 12.078125 42.972656 L 12.070312 42.972656 L 11.925781 42.976562 L 11.335938 42.988281 L 11.1875 42.992188 Z M 11.019531 42.996094 "/>
<path style=" stroke:none;fill-rule:nonzero;fill:rgb(18.431373%,18.039216%,25.490196%);fill-opacity:1;" d="M 9.871094 46.9375 C 9.875 47.113281 10.023438 47.25 10.199219 47.246094 L 10.433594 47.242188 L 10.582031 47.238281 L 11.171875 47.226562 L 11.320312 47.222656 L 11.625 47.21875 L 11.859375 46.714844 L 11.90625 46.929688 L 11.96875 47.210938 L 12.054688 47.210938 L 12.507812 47.199219 L 12.316406 45.421875 L 12.128906 45.414062 L 12.0625 45.410156 L 11.914062 45.40625 L 11.363281 45.386719 L 11.324219 45.382812 L 11.179688 45.378906 L 11.117188 45.375 L 11.128906 45.878906 L 10.585938 46.265625 L 10.4375 46.367188 L 10.003906 46.675781 C 9.917969 46.738281 9.871094 46.835938 9.871094 46.9375 Z M 9.871094 46.9375 "/>
<path style=" stroke:none;fill-rule:nonzero;fill:rgb(100%,71.372549%,71.372549%);fill-opacity:1;" d="M 16.730469 42.914062 L 17.136719 43.992188 L 17.140625 43.996094 L 17.273438 44.355469 L 17.492188 44.933594 L 17.585938 45.175781 L 17.722656 45.535156 L 18.203125 45.421875 L 18.34375 45.390625 L 18.421875 45.371094 L 18.339844 45.042969 L 18.128906 44.175781 L 17.757812 42.667969 L 17.753906 42.671875 L 17.609375 42.703125 L 17.039062 42.839844 L 16.894531 42.875 Z M 16.730469 42.914062 "/>
<path style=" stroke:none;fill-rule:nonzero;fill:rgb(18.431373%,18.039216%,25.490196%);fill-opacity:1;" d="M 16.464844 47.003906 C 16.503906 47.175781 16.679688 47.277344 16.851562 47.238281 L 17.078125 47.183594 L 17.222656 47.148438 L 17.796875 47.015625 L 17.9375 46.980469 L 18.238281 46.910156 L 18.359375 46.367188 L 18.449219 46.570312 L 18.453125 46.570312 L 18.570312 46.832031 L 18.65625 46.8125 L 19.09375 46.710938 L 18.523438 45.011719 L 18.339844 45.042969 L 18.273438 45.054688 L 18.128906 45.082031 L 17.585938 45.175781 L 17.546875 45.183594 L 17.402344 45.207031 L 17.34375 45.21875 L 17.460938 45.707031 L 17.015625 46.195312 L 16.894531 46.332031 L 16.535156 46.722656 C 16.464844 46.796875 16.4375 46.90625 16.464844 47.003906 Z M 16.464844 47.003906 "/>
<path style=" stroke:none;fill-rule:nonzero;fill:rgb(100%,71.372549%,71.372549%);fill-opacity:1;" d="M 12.242188 21.566406 L 11.730469 23.695312 C 13.273438 24.535156 14.800781 24.808594 15.464844 23.808594 L 16.332031 21.941406 Z M 12.242188 21.566406 "/>
<path style=" stroke:none;fill-rule:nonzero;fill:rgb(18.431373%,18.039216%,25.490196%);fill-opacity:1;" d="M 15.335938 23.824219 C 15.25 24.40625 13.964844 23.253906 11.75 23.640625 L 10.242188 28.582031 L 10.242188 44.207031 L 13.074219 44.328125 L 12.378906 36.054688 L 13.796875 32.195312 L 13.355469 35.898438 L 16.503906 44.328125 L 18.789062 44.328125 L 16.375 36.824219 L 16.753906 30.21875 C 16.753906 30.21875 17.632812 27.625 16.0625 25.523438 Z M 15.335938 23.824219 "/>
<path style=" stroke:none;fill-rule:nonzero;fill:rgb(90.196078%,90.196078%,90.196078%);fill-opacity:1;" d="M 15.777344 23.394531 L 11.828125 22.457031 L 11.800781 21.226562 C 11.800781 21.226562 11.113281 20.589844 11.804688 19.46875 L 13.535156 16.660156 L 13.695312 16.128906 L 15.039062 15.898438 L 16.480469 17.402344 L 16.71875 21.207031 Z M 15.777344 23.394531 "/>
<path style=" stroke:none;fill-rule:nonzero;fill:rgb(100%,71.372549%,71.372549%);fill-opacity:1;" d="M 10.664062 15.339844 L 9.371094 17.496094 L 8.4375 17.195312 L 10.082031 14.984375 C 10.050781 14.894531 10.042969 14.789062 10.070312 14.6875 C 10.144531 14.40625 10.4375 14.242188 10.722656 14.3125 C 11.007812 14.386719 11.175781 14.671875 11.101562 14.953125 C 11.046875 15.160156 10.871094 15.308594 10.664062 15.339844 Z M 10.664062 15.339844 "/>
<path style=" stroke:none;fill-rule:nonzero;fill:rgb(90.196078%,90.196078%,90.196078%);fill-opacity:1;" d="M 14.824219 18.304688 L 15.003906 17.5 C 15.003906 17.5 14.867188 16.976562 13.894531 17.007812 C 12.925781 17.039062 9.621094 17.472656 9.621094 17.472656 L 9.96875 16.933594 L 10.070312 16.414062 L 9.125 16.140625 L 8.671875 16.464844 L 8.542969 16.804688 L 8.625 16.917969 L 8.386719 17.125 C 8.144531 17.703125 8.410156 18.367188 8.992188 18.632812 L 9.226562 18.792969 L 9.550781 18.898438 L 9.902344 18.792969 Z M 14.824219 18.304688 "/>
<path style=" stroke:none;fill-rule:nonzero;fill:rgb(100%,71.372549%,71.372549%);fill-opacity:1;" d="M 18.148438 26.425781 L 17.292969 24.066406 L 18.125 23.554688 L 18.796875 26.210938 C 18.890625 26.246094 18.972656 26.308594 19.035156 26.394531 C 19.207031 26.628906 19.152344 26.957031 18.910156 27.125 C 18.671875 27.292969 18.335938 27.238281 18.167969 27 C 18.039062 26.824219 18.039062 26.597656 18.148438 26.425781 Z M 18.148438 26.425781 "/>
<path style=" stroke:none;fill-rule:nonzero;fill:rgb(90.196078%,90.196078%,90.196078%);fill-opacity:1;" d="M 15.289062 17.613281 L 15.996094 17.171875 C 15.996094 17.171875 16.546875 17.125 16.847656 18.027344 C 17.148438 18.933594 17.964844 22.679688 17.964844 22.679688 L 18.277344 23.128906 L 18.300781 23.261719 L 18.574219 23.644531 L 18.476562 23.785156 L 18.847656 23.984375 L 17.457031 24.773438 L 16.992188 24.027344 L 17.070312 23.65625 L 16.835938 23.492188 L 16.621094 23.230469 L 16.605469 22.871094 Z M 15.289062 17.613281 "/>
<path style=" stroke:none;fill-rule:nonzero;fill:rgb(18.431373%,18.039216%,25.490196%);fill-opacity:1;" d="M 13.316406 15.066406 L 14.136719 15.742188 L 13.3125 13.242188 L 13.191406 13.332031 C 13.066406 13.421875 13 13.578125 13.027344 13.730469 Z M 13.316406 15.066406 "/>
<path style=" stroke:none;fill-rule:nonzero;fill:rgb(100%,71.372549%,71.372549%);fill-opacity:1;" d="M 15.734375 14.28125 C 15.734375 15.023438 15.121094 15.625 14.363281 15.625 C 13.605469 15.625 12.992188 15.023438 12.992188 14.28125 C 12.992188 13.539062 13.605469 12.933594 14.363281 12.933594 C 15.121094 12.933594 15.734375 13.539062 15.734375 14.28125 Z M 15.734375 14.28125 "/>
<path style=" stroke:none;fill-rule:nonzero;fill:rgb(18.431373%,18.039216%,25.490196%);fill-opacity:1;" d="M 15.296875 16.957031 C 15.296875 16.957031 14.53125 16.996094 13.707031 16.839844 C 13.644531 16.652344 13.644531 16.449219 13.707031 16.261719 C 13.652344 16.40625 13.191406 16.957031 13.191406 16.957031 C 13.261719 16.351562 13.253906 15.878906 13.5625 15.492188 C 14.058594 14.875 13.429688 14.210938 13.058594 13.554688 C 13.015625 13.375 13.101562 13.191406 13.265625 13.097656 C 13.265625 12.902344 14.226562 12.300781 14.875 12.664062 C 15.429688 12.386719 16.621094 13.148438 16.746094 13.84375 C 17.414062 14.285156 17.648438 16.871094 16.890625 16.550781 Z M 15.296875 16.957031 "/>
</g>
</svg>
